<svg id="Ebene_1" data-name="Ebene 1" xmlns="http://www.w3.org/2000/svg" viewBox="0 0 564.47 132.28"><defs><style>.cls-1{fill:#fff;}.cls-1,.cls-3{stroke:#000;stroke-miterlimit:10;stroke-width:1.7px;}.cls-2{fill:#2e95d3;}.cls-3{fill:none;}</style></defs><title>slacklions_logo</title><path d="M229.28,76.87a5.56,5.56,0,0,0-2-4.44c-1.35-1.15-3.73-2.19-7.14-3.1q-7.32-1.92-11.25-5.08A10.1,10.1,0,0,1,204.93,56a10.57,10.57,0,0,1,4.36-8.69q4.35-3.42,11.25-3.41,7.19,0,11.54,3.87a11.58,11.58,0,0,1,4.21,9.31l-.06.18h-7A7,7,0,0,0,227,51.79a9.3,9.3,0,0,0-6.5-2.08,9.56,9.56,0,0,0-6.13,1.73,5.5,5.5,0,0,0-2.14,4.48,4.9,4.9,0,0,0,2.32,4.13,25.77,25.77,0,0,0,7.68,3.11q7,1.89,10.7,5.21a11,11,0,0,1,3.65,8.48,10.23,10.23,0,0,1-4.36,8.67q-4.35,3.23-11.45,3.22a20.23,20.23,0,0,1-12-3.64,11.19,11.19,0,0,1-5-9.93l.06-.18h7a6.81,6.81,0,0,0,2.76,6,12,12,0,0,0,7.16,2A10.55,10.55,0,0,0,227,81.27,5.16,5.16,0,0,0,229.28,76.87Z"/><path d="M251.51,82.27h20v5.84H244.23V44.49h7.28Z"/><path d="M301.66,77.93H284.58l-3.47,10.18h-7.37l16-43.62h6.89L312.5,88.11h-7.4Zm-15-6.08h12.91l-6.32-18.64h-.18Z"/><path d="M349.38,73.64l.06.18a13.71,13.71,0,0,1-4.3,10.77c-2.95,2.77-6.93,4.15-12,4.15a16.14,16.14,0,0,1-12.41-5.14Q316,78.47,316,70.47v-8.3A18.73,18.73,0,0,1,320.7,49,15.83,15.83,0,0,1,333,43.87c5.16,0,9.21,1.35,12.18,4.05s4.41,6.35,4.33,10.92l-.06.18h-7A9.45,9.45,0,0,0,340,52.16q-2.39-2.44-7-2.45a8.35,8.35,0,0,0-7.08,3.53,14.44,14.44,0,0,0-2.62,8.86v8.35a14.33,14.33,0,0,0,2.68,8.92,8.62,8.62,0,0,0,7.23,3.53q4.53,0,6.86-2.42a9.43,9.43,0,0,0,2.34-6.84Z"/><path d="M368.88,69.24h-5V88.11h-7.28V44.49h7.28V63H368L381.7,44.49h8.63L374.45,65.31l17.11,22.8h-8.9Z"/><path d="M403.39,82.27h20v5.84H396.11V44.49h7.28Z"/><path d="M437,88.11h-7.28V44.49H437Z"/><path d="M481,70.23a18.4,18.4,0,0,1-5,13.25,17.15,17.15,0,0,1-13,5.26,16.59,16.59,0,0,1-12.75-5.26,18.65,18.65,0,0,1-4.9-13.25V62.38a18.67,18.67,0,0,1,4.9-13.24,16.53,16.53,0,0,1,12.72-5.27,17.19,17.19,0,0,1,13,5.27,18.43,18.43,0,0,1,5,13.24Zm-7.25-7.91a13.51,13.51,0,0,0-2.92-9,9.76,9.76,0,0,0-7.89-3.5,9.16,9.16,0,0,0-7.58,3.5,13.94,13.94,0,0,0-2.79,9v7.91a14.11,14.11,0,0,0,2.79,9,9.16,9.16,0,0,0,7.61,3.52,9.68,9.68,0,0,0,7.89-3.51,13.71,13.71,0,0,0,2.89-9Z"/><path d="M522.89,88.11h-7.25L496.29,56.27l-.18.06V88.11h-7.28V44.49h7.28l19.35,31.82.18-.06V44.49h7.25Z"/><path d="M556.08,76.87a5.56,5.56,0,0,0-2-4.44c-1.35-1.15-3.73-2.19-7.15-3.1q-7.3-1.92-11.25-5.08A10.12,10.12,0,0,1,531.73,56a10.59,10.59,0,0,1,4.35-8.69q4.36-3.42,11.25-3.41,7.2,0,11.55,3.87a11.58,11.58,0,0,1,4.21,9.31l-.06.18h-7a7,7,0,0,0-2.28-5.44q-2.26-2.09-6.5-2.08a9.55,9.55,0,0,0-6.12,1.73A5.5,5.5,0,0,0,539,55.92a4.9,4.9,0,0,0,2.32,4.13A25.66,25.66,0,0,0,549,63.16q7,1.89,10.7,5.21a11,11,0,0,1,3.65,8.48A10.23,10.23,0,0,1,559,85.52q-4.35,3.23-11.46,3.22a20.2,20.2,0,0,1-12-3.64,11.19,11.19,0,0,1-5-9.93l.06-.18h7a6.83,6.83,0,0,0,2.75,6,12.07,12.07,0,0,0,7.16,2,10.51,10.51,0,0,0,6.29-1.63A5.14,5.14,0,0,0,556.08,76.87Z"/><path d="M94.83,131.33,1,116.92v-4.58l93.82,14.42,90.66-13.44v4.57Z"/><path class="cls-1" d="M176.73,46.19a12.09,12.09,0,0,0-3.37-9.61c-2.8-2.69-7.33-4.14-11.21-2.56-4.84,2-6.09,7.76-6.22,8.48-1.54,7.69,5,12.32,2.71,18.06a10.2,10.2,0,0,1-5.27,5.07,28.63,28.63,0,0,1-11.5-30q3.49,7.64,7,15.26a55.74,55.74,0,0,1,3.48-17.06c1.22-3.24,2.69-6.11,2.69-10.36A20.86,20.86,0,0,0,152.76,14C148.13,3.87,135.43,2,135.43,2a24.93,24.93,0,0,0-16.75,3.37A18.22,18.22,0,0,1,129.1,7a17.84,17.84,0,0,1,6,4.77c-7.67-5.31-16.57-2.51-16.57-2.51l-11.64,6.19c1.51,2.26,3.05,4.5,4.58,6.76a15.25,15.25,0,0,0,6.81-1.06,3.29,3.29,0,0,1,4.61,1.6,2.86,2.86,0,0,1-.79,3.1c-1.47,1.11-4.63-.07-4.63-.07l-4.91,2.58,2.83,6.51,5.44-4.45c3.24.11,10.65-5.11,10.65-5.11-1.33,3.71-7.1,9.58-11.35,13.54l-9.88-.14q-5.52-9.63-11-19.3c-3.71.09-7.41.16-11.12.22l-.18.3c-.09.16-.21.29-.3.45L78.33,34.93l-2,3.12c-3.33,0-6.67,0-10,0-4.25-4-9.93-9.74-11.24-13.43,0,0,7.42,5.22,10.65,5.11l5.45,4.46L73,30.07l1-2.38-4.9-2.57a3.09,3.09,0,0,1-.91.61,3.23,3.23,0,0,1-3.75-.54A3.2,3.2,0,0,1,64,21.91a3.55,3.55,0,0,1,.2-.39,3.44,3.44,0,0,1,2.19-1.42c1.52-.29,2.38.65,4.34,1.13a13.53,13.53,0,0,0,4.37.32l4.58-6.76L68.06,8.59a12.48,12.48,0,0,0-5.94-3.41C57.17,4,53.05,6.42,51.4,7.6,49.59,6.33,47.79,5.07,46,3.78a3.38,3.38,0,0,0-1.2.61C42.68,5.88,44,9,44.67,10a11,11,0,0,0,3.18,2.35,27.9,27.9,0,0,0-1.92,4.21c-2.35,6.6-1.35,11.23-1.22,19.12.14,8.3.21,12.73-1.72,17.52A27.1,27.1,0,0,1,33.21,65c-2.33-1.36-5.5-3.66-6.13-7.14-1-5.52,5.36-8.46,4.68-14.38-.54-4.66-5.25-9.31-10.6-9.81-.5,0-6.47-.52-9.72,4.14a10.61,10.61,0,0,0-1.58,7.75L2.35,51.27a8.08,8.08,0,0,0,2.74,1.54c3.21,1,7.39-.05,9-2.58,1.78-2.8-.84-5.2,1-8.29,1.25-2.08,4.14-3.82,6.74-3.06,2.44.73,3.89,3.42,4,5.66.11,3.05-2.33,3.7-4,7.88a16.39,16.39,0,0,0-.32,10.88,15.72,15.72,0,0,0,6.42,8s2.76,8.48-1.42,15.6l-8.23,6.94c.42,3.26.87,6.54,1.34,9.86.44,3.09.9,6.15,1.36,9.18l21.71,3.38-3.84-8.83-9.13.65-.16-4.5s8.39-4,11-7.45c1.17-1.9,2.32-3.78,3.5-5.68a12.88,12.88,0,0,1,6.24,1.49,13.71,13.71,0,0,1,6.42,8.16s-1.06,1.86-5.2,1q3.84,8.86,7.7,17.74l20,3.11q-1.74-5.41-3.47-10.84l-9,1.92s-2.6-5.13-1.58-7.79A27.12,27.12,0,0,0,70.57,100c2.22-2.85,5.09-6.53,4.77-11-.25-3.21-2.08-5.52-5.74-10.1a49.51,49.51,0,0,0-5.31-5.7,73.53,73.53,0,0,1-4.41-7.42c-1-1.92-1.83-3.77-2.55-5.51L65.17,68q11.3-3.63,22.54-7.23c0,1.76-.07,3.55-.12,5.33,3.8.23,7.6.43,11.4.66L99.62,62l12.7,3.91,9.09,2.81,7.85-7.76a40.47,40.47,0,0,1-2.56,5.52,39.51,39.51,0,0,1-5.29,7.3c-.09.05-.2.07-.32.14a18.25,18.25,0,0,0-8.72,6.69c-1,1.47-3.73,5.42-3.08,10.58.57,4.54,3.42,7.46,5.23,9.33a21.69,21.69,0,0,0,6.15,4.41c1.35,2.53-.61,8-.61,8l-9.14-.82-2.6,10,20.08-3.62,5.35-19.26c-4,1.38-5.29-.33-5.29-.33a8,8,0,0,1,4-7.24,8.36,8.36,0,0,1,7.1-.36l6.66,6.48c.44.42,4,3.8,6.43,4.94.68.31,1.48.62,1.48.62,1.09.43,2.06.74,2.88,1l-.09,2.28-.07,2.22L147.7,108,144,116.44q10.33-1.32,20.68-2.69s0-.11,0-.16c1.18-6.21,2.31-12.41,3.46-18.65L160,87.51c-4.18-7.12-1.42-15.6-1.42-15.6A15.83,15.83,0,0,0,165,64a17.77,17.77,0,0,0-.32-10.87c-1.31-3.93-3.09-4.84-2.94-8,0-.27.27-4.52,2.94-5.56,2.08-.81,4.79.68,6.26,2.44,3.21,3.91,0,8.61,2.92,11,2,1.68,5.61,1.18,7.6.45a10.24,10.24,0,0,0,2.73-1.53C181.72,50,179.21,48.11,176.73,46.19Zm-62.51,7.93-15.3-.45-2.6-.07-24-.14c-.18-1.8-.39-3.61-.57-5.44l12.5-.84,2.2-4.81q2.91-6.48,5.85-12.93c1.13,0,2.24.06,3.37.11,2.58,6,5.13,12.07,7.71,18.11l11.48.09C114.67,49.87,114.45,52,114.22,54.12Z"/><path class="cls-2" d="M113.35,66.19,99.62,62,99,66.78c-3.8-.23-7.6-.43-11.4-.66,0-1.78.09-3.57.12-5.33Q76.45,64.38,65.17,68l-7.84-7.75c.72,1.74,1.56,3.59,2.55,5.51a73.53,73.53,0,0,0,4.41,7.42,49.51,49.51,0,0,1,5.31,5.7c3.66,4.58,5.49,6.89,5.74,10.1.32,4.48-2.55,8.16-4.77,11a27.12,27.12,0,0,1-5.35,5.18c-1,2.66,1.58,7.79,1.58,7.79l9-1.92q1.73,5.41,3.47,10.84l-19.87-3.1q-3.91-8.86-7.81-17.75c4.14.86,5.2-1,5.2-1a13.71,13.71,0,0,0-6.42-8.16,12.88,12.88,0,0,0-6.24-1.49c-1.18,1.9-2.33,3.78-3.5,5.68-2.6,3.45-11,7.45-11,7.45l.16,4.5,9.13-.65,3.84,8.83L21,112.83q-.69-4.55-1.36-9.18c-.47-3.32-.92-6.6-1.34-9.86l8.23-6.94C30.72,79.73,28,71.25,28,71.25a15.72,15.72,0,0,1-6.42-8,16.39,16.39,0,0,1,.32-10.88c1.65-4.18,4.09-4.83,4-7.88-.09-2.24-1.54-4.93-4-5.66-2.6-.76-5.49,1-6.74,3.06-1.83,3.09.79,5.49-1,8.29-1.65,2.53-5.83,3.6-9,2.58a8.08,8.08,0,0,1-2.74-1.54l7.51-5.74a10.61,10.61,0,0,1,1.58-7.75c3.25-4.66,9.22-4.19,9.72-4.14,5.35.5,10.06,5.15,10.6,9.81.68,5.92-5.67,8.86-4.68,14.38.63,3.48,3.8,5.78,6.13,7.14A27.1,27.1,0,0,0,43,53.15c1.93-4.79,1.86-9.22,1.72-17.52-.13-7.89-1.13-12.52,1.22-19.12a27.9,27.9,0,0,1,1.92-4.21A5,5,0,0,1,44.67,10,5.27,5.27,0,0,1,46,3.78L64.81,20.86a3,3,0,1,0,4.32,4.26l4.58,3.31c-.84,1.93-1.67,3.85-2.5,5.78l-5.45-4.46c-3.23.11-10.65-5.11-10.65-5.11,1.31,3.69,7,9.47,11.24,13.43,3.32,0,6.66,0,10,0l2.56-4,8,7.46-1.5,3.29c-.34.76-.75,1.66-1.1,2.41L71.79,48c.18,1.83.39,3.64.57,5.44l24,.14,1.3,0,2.35.07Z"/><path class="cls-2" d="M139.88,91a8.67,8.67,0,0,0-7.44.56,8.88,8.88,0,0,0-4,7.24s1.29,1.71,5.29.33l-5.35,19.26L108.32,122l2.6-10,9.14.82s2-5.43.61-8a21.69,21.69,0,0,1-6.15-4.41c-1.81-1.87-4.66-4.79-5.23-9.33-.64-5.18,2.08-9.13,3.08-10.58a18.41,18.41,0,0,1,9-6.83Z"/><path class="cls-2" d="M164.4,113.87q-5,.6-10,1.24c-3.47.43-6.92.88-10.34,1.33L147.7,108l9.13.66.06-1.83Z"/><path class="cls-3" d="M176.73,46.19a12.09,12.09,0,0,0-3.37-9.61c-2.8-2.69-7.33-4.14-11.21-2.56-4.84,2-6.09,7.76-6.22,8.48-1.54,7.69,5,12.32,2.71,18.06a10.2,10.2,0,0,1-5.27,5.07,28.63,28.63,0,0,1-11.5-30q3.49,7.64,7,15.26a55.74,55.74,0,0,1,3.48-17.06c1.22-3.24,2.69-6.11,2.69-10.36A20.86,20.86,0,0,0,152.76,14C148.13,3.87,135.43,2,135.43,2a24.93,24.93,0,0,0-16.75,3.37A18.22,18.22,0,0,1,129.1,7a17.84,17.84,0,0,1,6,4.77c-7.67-5.31-16.57-2.51-16.57-2.51l-11.64,6.19c1.51,2.26,3.05,4.5,4.58,6.76a15.25,15.25,0,0,0,6.81-1.06,3.29,3.29,0,0,1,4.61,1.6,2.86,2.86,0,0,1-.79,3.1c-1.47,1.11-4.63-.07-4.63-.07l-4.91,2.58,2.83,6.51,5.44-4.45c3.24.11,10.65-5.11,10.65-5.11-1.33,3.71-7.1,9.58-11.35,13.54l-9.88-.14q-5.52-9.63-11-19.3c-3.71.09-7.41.16-11.12.22l-.18.3c-.09.16-.21.29-.3.45L78.33,34.93l-2,3.12c-3.33,0-6.67,0-10,0-4.25-4-9.93-9.74-11.24-13.43,0,0,7.42,5.22,10.65,5.11l5.45,4.46L73,30.07l1-2.38-4.9-2.57a3.09,3.09,0,0,1-.91.61,3.23,3.23,0,0,1-3.75-.54A3.2,3.2,0,0,1,64,21.91a3.55,3.55,0,0,1,.2-.39,3.44,3.44,0,0,1,2.19-1.42c1.52-.29,2.38.65,4.34,1.13a13.53,13.53,0,0,0,4.37.32l4.58-6.76L68.06,8.59a12.48,12.48,0,0,0-5.94-3.41C57.17,4,53.05,6.42,51.4,7.6,49.59,6.33,47.79,5.07,46,3.78a3.38,3.38,0,0,0-1.2.61C42.68,5.88,44,9,44.67,10a11,11,0,0,0,3.18,2.35,27.9,27.9,0,0,0-1.92,4.21c-2.35,6.6-1.35,11.23-1.22,19.12.14,8.3.21,12.73-1.72,17.52A27.1,27.1,0,0,1,33.21,65c-2.33-1.36-5.5-3.66-6.13-7.14-1-5.52,5.36-8.46,4.68-14.38-.54-4.66-5.25-9.31-10.6-9.81-.5,0-6.47-.52-9.72,4.14a10.61,10.61,0,0,0-1.58,7.75L2.35,51.27a8.08,8.08,0,0,0,2.74,1.54c3.21,1,7.39-.05,9-2.58,1.78-2.8-.84-5.2,1-8.29,1.25-2.08,4.14-3.82,6.74-3.06,2.44.73,3.89,3.42,4,5.66.11,3.05-2.33,3.7-4,7.88a16.39,16.39,0,0,0-.32,10.88,15.72,15.72,0,0,0,6.42,8s2.76,8.48-1.42,15.6l-8.23,6.94c.42,3.26.87,6.54,1.34,9.86.44,3.09.9,6.15,1.36,9.18l21.71,3.38-3.84-8.83-9.13.65-.16-4.5s8.39-4,11-7.45c1.17-1.9,2.32-3.78,3.5-5.68a12.88,12.88,0,0,1,6.24,1.49,13.71,13.71,0,0,1,6.42,8.16s-1.06,1.86-5.2,1q3.84,8.86,7.7,17.74l20,3.11q-1.74-5.41-3.47-10.84l-9,1.92s-2.6-5.13-1.58-7.79A27.12,27.12,0,0,0,70.57,100c2.22-2.85,5.09-6.53,4.77-11-.25-3.21-2.08-5.52-5.74-10.1a49.51,49.51,0,0,0-5.31-5.7,73.53,73.53,0,0,1-4.41-7.42c-1-1.92-1.83-3.77-2.55-5.51L65.17,68q11.3-3.63,22.54-7.23c0,1.76-.07,3.55-.12,5.33,3.8.23,7.6.43,11.4.66L99.62,62l12.7,3.91,9.09,2.81,7.85-7.76a40.47,40.47,0,0,1-2.56,5.52,39.51,39.51,0,0,1-5.29,7.3c-.09.05-.2.07-.32.14a18.25,18.25,0,0,0-8.72,6.69c-1,1.47-3.73,5.42-3.08,10.58.57,4.54,3.42,7.46,5.23,9.33a21.69,21.69,0,0,0,6.15,4.41c1.35,2.53-.61,8-.61,8l-9.14-.82-2.6,10,20.08-3.62,5.35-19.26c-4,1.38-5.29-.33-5.29-.33a8,8,0,0,1,4-7.24,8.36,8.36,0,0,1,7.1-.36l6.66,6.48c.44.42,4,3.8,6.43,4.94.68.31,1.48.62,1.48.62,1.09.43,2.06.74,2.88,1l-.09,2.28-.07,2.22L147.7,108,144,116.44q10.33-1.32,20.68-2.69s0-.11,0-.16c1.18-6.21,2.31-12.41,3.46-18.65L160,87.51c-4.18-7.12-1.42-15.6-1.42-15.6A15.83,15.83,0,0,0,165,64a17.77,17.77,0,0,0-.32-10.87c-1.31-3.93-3.09-4.84-2.94-8,0-.27.27-4.52,2.94-5.56,2.08-.81,4.79.68,6.26,2.44,3.21,3.91,0,8.61,2.92,11,2,1.68,5.61,1.18,7.6.45a10.24,10.24,0,0,0,2.73-1.53C181.72,50,179.21,48.11,176.73,46.19Zm-62.51,7.93-15.3-.45-2.6-.07-24-.14c-.18-1.8-.39-3.61-.57-5.44l12.5-.84,2.2-4.81q2.91-6.48,5.85-12.93c1.13,0,2.24.06,3.37.11,2.58,6,5.13,12.07,7.71,18.11l11.48.09C114.67,49.87,114.45,52,114.22,54.12Z"/></svg>